<?xml version="1.0" encoding="UTF-8" standalone="no"?>
<svg
   viewBox="0 0 829.99998 600.00003"
   width="830"
   height="600"
   version="1.1"
   id="svg275"
   sodipodi:docname="logo.svg"
   inkscape:version="1.4.3 (0d15f75042, 2025-12-25)"
   xmlns:inkscape="http://www.inkscape.org/namespaces/inkscape"
   xmlns:sodipodi="http://sodipodi.sourceforge.net/DTD/sodipodi-0.dtd"
   xmlns="http://www.w3.org/2000/svg"
   xmlns:svg="http://www.w3.org/2000/svg">
  <sodipodi:namedview
     id="namedview275"
     pagecolor="#ffffff"
     bordercolor="#000000"
     borderopacity="0.25"
     inkscape:showpageshadow="2"
     inkscape:pageopacity="0.0"
     inkscape:pagecheckerboard="0"
     inkscape:deskcolor="#d1d1d1"
     inkscape:zoom="4"
     inkscape:cx="107.38409"
     inkscape:cy="365.51411"
     inkscape:window-width="1920"
     inkscape:window-height="1042"
     inkscape:window-x="0"
     inkscape:window-y="0"
     inkscape:window-maximized="1"
     inkscape:current-layer="svg275"
     inkscape:rotation="-29" />
  <desc
     id="desc1">combo (13).dxf - scale = 1.000000, origin = (0.000000, 0.000000), method = auto</desc>
  <defs
     id="defs4">
    <marker
       id="DistanceX"
       orient="auto"
       refX="0"
       refY="0"
       style="overflow:visible">
      <path
         d="M 3,-3 -3,3 M 0,-5 V 5"
         style="stroke:#000000;stroke-width:0.5"
         id="path1" />
    </marker>
    <pattern
       id="Hatch"
       patternUnits="userSpaceOnUse"
       width="8"
       height="8"
       x="0"
       y="0">
      <path
         d="M8 4 l-4,4"
         stroke="#000000"
         stroke-width="0.25"
         linecap="square"
         id="path2" />
      <path
         d="M6 2 l-4,4"
         stroke="#000000"
         stroke-width="0.25"
         linecap="square"
         id="path3" />
      <path
         d="M4 0 l-4,4"
         stroke="#000000"
         stroke-width="0.25"
         linecap="square"
         id="path4" />
    </pattern>
  </defs>
  <g
     inkscape:groupmode="layer"
     inkscape:label="0"
     id="g275"
     sodipodi:insensitive="true">
    <path
       style="fill:none;stroke:#000000"
       d="m 14.713425,292.75561 82.014403,-175.88"
       id="path5" />
    <path
       style="fill:none;stroke:#000000"
       d="m 100.24483,114.69561 101.69199,2.46"
       id="path6" />
    <path
       style="fill:none;stroke:#000000"
       d="m 202.87882,117.29561 76.625,21.8"
       id="path7" />
    <path
       style="fill:none;stroke:#000000"
       d="m 280.58282,139.59561 61.555,41.52"
       id="path8" />
    <path
       style="fill:none;stroke:#000000"
       d="m 343.16282,182.14561 43.455,64.8"
       id="path9" />
    <path
       style="fill:none;stroke:#000000"
       d="m 387.14382,249.96561 -4.167,16.57"
       id="path10" />
    <path
       style="fill:none;stroke:#000000"
       d="m 381.79382,271.23561 h 68.031"
       id="path11" />
    <path
       style="fill:none;stroke:#000000"
       d="m 448.64182,266.53561 -4.167,-16.57"
       id="path12" />
    <path
       style="fill:none;stroke:#000000"
       d="m 445.00082,246.94561 43.455,-64.8"
       id="path13" />
    <path
       style="fill:none;stroke:#000000"
       d="m 489.48182,181.11561 61.554,-41.52"
       id="path14" />
    <path
       style="fill:none;stroke:#000000"
       d="m 552.11482,139.09561 76.625,-21.8"
       id="path15" />
    <path
       style="fill:none;stroke:#000000"
       d="m 629.68282,117.15561 101.691,-2.46"
       id="path16" />
    <path
       style="fill:none;stroke:#000000"
       d="m 734.89082,116.87561 82.015,175.88"
       id="path17" />
    <path
       style="fill:none;stroke:#000000"
       d="m 815.07682,297.78561 -64.968,30.29"
       id="path18" />
    <path
       style="fill:none;stroke:#000000"
       d="m 749.88382,328.19561 -173.175,95.24"
       id="path19" />
    <path
       style="fill:none;stroke:#000000"
       d="m 576.30782,423.68561 -112.943,82.06"
       id="path20" />
    <path
       style="fill:none;stroke:#000000"
       d="m 458.08582,504.90561 -38.856,-53.48"
       id="path21" />
    <path
       style="fill:none;stroke:#000000"
       d="m 416.17282,449.86561 h -2.652"
       id="path22" />
    <path
       style="fill:none;stroke:#000000"
       d="m 413.52082,449.86561 -39.988,55.04"
       id="path23" />
    <path
       style="fill:none;stroke:#000000"
       d="m 368.25382,505.74561 -112.943,-82.06"
       id="path24" />
    <path
       style="fill:none;stroke:#000000"
       d="m 254.91082,423.43561 -173.175996,-95.24"
       id="path25" />
    <path
       style="fill:none;stroke:#000000"
       d="m 81.510824,328.07561 -64.969199,-30.29"
       id="path26" />
    <path
       d="m 100.24475,114.69871 a 3.779528,3.779528 0 0 0 -3.516752,2.18113"
       style="fill:none;stroke:#000000"
       id="path27" />
    <path
       d="m 202.87917,117.30013 a 3.779528,3.779528 0 0 0 -0.94271,-0.1431"
       style="fill:none;stroke:#000000"
       id="path28" />
    <path
       d="M 280.58314,139.59755 A 3.779528,3.779528 0 0 0 279.5037,139.0956"
       style="fill:none;stroke:#000000"
       id="path29" />
    <path
       d="m 343.16296,182.14472 a 3.779528,3.779528 0 0 0 -1.02552,-1.02827"
       style="fill:none;stroke:#000000"
       id="path30" />
    <path
       d="m 387.14391,249.96886 a 3.779528,3.779528 0 0 0 -0.52629,-3.02729"
       style="fill:none;stroke:#000000"
       id="path31" />
    <path
       d="m 382.97665,266.53209 a 3.779528,3.779528 0 0 0 3.66529,4.70171"
       style="fill:none;stroke:#000000"
       id="path32" />
    <path
       d="m 444.97697,271.2338 a 3.779528,3.779528 0 0 0 3.6653,-4.70171"
       style="fill:none;stroke:#000000"
       id="path33" />
    <path
       d="m 445.00129,246.94157 a 3.779528,3.779528 0 0 0 -0.52629,3.02729"
       style="fill:none;stroke:#000000"
       id="path34" />
    <path
       d="m 489.48147,181.11645 a 3.779528,3.779528 0 0 0 -1.02552,1.02827"
       style="fill:none;stroke:#000000"
       id="path35" />
    <path
       d="m 552.11521,139.0956 a 3.779528,3.779528 0 0 0 -1.07943,0.50195"
       style="fill:none;stroke:#000000"
       id="path36" />
    <path
       d="m 629.68245,117.15703 a 3.779528,3.779528 0 0 0 -0.94271,0.1431"
       style="fill:none;stroke:#000000"
       id="path37" />
    <path
       d="m 734.89092,116.87984 a 3.779528,3.779528 0 0 0 -3.51676,-2.18113"
       style="fill:none;stroke:#000000"
       id="path38" />
    <path
       d="m 815.07732,297.78327 a 3.779528,3.779528 0 0 0 1.82812,-5.02272"
       style="fill:none;stroke:#000000"
       id="path39" />
    <path
       d="m 750.10834,328.0788 a 3.779528,3.779528 0 0 0 -0.22403,0.11368"
       style="fill:none;stroke:#000000"
       id="path40" />
    <path
       d="m 576.70837,423.43248 a 3.779528,3.779528 0 0 0 -0.40023,0.25403"
       style="fill:none;stroke:#000000"
       id="path41" />
    <path
       d="m 458.08605,504.90814 a 3.779528,3.779528 0 0 0 5.27925,0.83615"
       style="fill:none;stroke:#000000"
       id="path42" />
    <path
       d="m 419.23007,451.42748 a 3.779528,3.779528 0 0 0 -3.0577,-1.55798"
       style="fill:none;stroke:#000000"
       id="path43" />
    <path
       d="m 368.25361,505.74429 a 3.779528,3.779528 0 0 0 5.27926,-0.83615"
       style="fill:none;stroke:#000000"
       id="path44" />
    <path
       d="m 255.31077,423.68651 a 3.779528,3.779528 0 0 0 -0.40022,-0.25403"
       style="fill:none;stroke:#000000"
       id="path45" />
    <path
       d="M 81.734602,328.19248 A 3.779528,3.779528 0 0 0 81.510573,328.0788"
       style="fill:none;stroke:#000000"
       id="path46" />
    <path
       d="m 14.713472,292.76055 a 3.779528,3.779528 0 0 0 1.828117,5.02272"
       style="fill:none;stroke:#000000"
       id="path47" />
    <path
       style="fill:none;stroke:#000000"
       d="m 19.394525,293.90561 59.945299,27.95"
       id="path48" />
    <path
       style="fill:none;stroke:#000000"
       d="m 79.339824,321.85561 26.355006,-56.52"
       id="path49" />
    <path
       style="fill:none;stroke:#000000"
       d="m 105.69483,265.33561 -59.944906,-27.95"
       id="path50" />
    <path
       style="fill:none;stroke:#000000"
       d="m 45.749924,237.38561 -26.355399,56.52"
       id="path51" />
    <path
       style="fill:none;stroke:#000000"
       d="m 46.548624,235.66561 59.945206,27.96"
       id="path52" />
    <path
       style="fill:none;stroke:#000000"
       d="m 106.49383,263.62561 26.35499,-56.52"
       id="path53" />
    <path
       style="fill:none;stroke:#000000"
       d="m 132.84882,207.10561 -59.944996,-27.96"
       id="path54" />
    <path
       style="fill:none;stroke:#000000"
       d="m 72.903824,179.14561 -26.3552,56.52"
       id="path55" />
    <path
       style="fill:none;stroke:#000000"
       d="m 73.702824,177.43561 59.944996,27.95"
       id="path56" />
    <path
       style="fill:none;stroke:#000000"
       d="m 133.64782,205.38561 26.355,-56.52"
       id="path57" />
    <path
       style="fill:none;stroke:#000000"
       d="m 160.00282,148.86561 -59.94499,-27.95"
       id="path58" />
    <path
       style="fill:none;stroke:#000000"
       d="m 100.05783,120.91561 -26.355006,56.52"
       id="path59" />
    <path
       style="fill:none;stroke:#000000"
       d="m 102.77583,285.54561 56.09199,35.05"
       id="path60" />
    <path
       style="fill:none;stroke:#000000"
       d="m 158.86782,320.59561 33.047,-52.89"
       id="path61" />
    <path
       style="fill:none;stroke:#000000"
       d="m 191.91482,267.70561 -56.092,-35.05"
       id="path62" />
    <path
       style="fill:none;stroke:#000000"
       d="m 135.82282,232.65561 -33.04699,52.89"
       id="path63" />
    <path
       style="fill:none;stroke:#000000"
       d="m 136.82482,231.05561 56.091,35.05"
       id="path64" />
    <path
       style="fill:none;stroke:#000000"
       d="m 192.91582,266.10561 33.047,-52.89"
       id="path65" />
    <path
       style="fill:none;stroke:#000000"
       d="m 225.96282,213.21561 -56.091,-35.05"
       id="path66" />
    <path
       style="fill:none;stroke:#000000"
       d="m 169.87182,178.16561 -33.047,52.89"
       id="path67" />
    <path
       style="fill:none;stroke:#000000"
       d="m 170.87282,176.56561 56.091,35.05"
       id="path68" />
    <path
       style="fill:none;stroke:#000000"
       d="m 226.96382,211.61561 33.047,-52.89"
       id="path69" />
    <path
       style="fill:none;stroke:#000000"
       d="m 260.01082,158.72561 -56.091,-35.05"
       id="path70" />
    <path
       style="fill:none;stroke:#000000"
       d="m 203.91982,123.67561 -33.047,52.89"
       id="path71" />
    <path
       style="fill:none;stroke:#000000"
       d="m 174.62682,304.05561 54.834,36.98"
       id="path72" />
    <path
       style="fill:none;stroke:#000000"
       d="m 229.46082,341.03561 34.873,-51.7"
       id="path73" />
    <path
       style="fill:none;stroke:#000000"
       d="m 264.33382,289.33561 -54.834,-36.98"
       id="path74" />
    <path
       style="fill:none;stroke:#000000"
       d="m 209.49982,252.35561 -34.873,51.7"
       id="path75" />
    <path
       style="fill:none;stroke:#000000"
       d="m 210.55682,250.78561 54.834,36.99"
       id="path76" />
    <path
       style="fill:none;stroke:#000000"
       d="m 265.39082,287.77561 34.872,-51.7"
       id="path77" />
    <path
       style="fill:none;stroke:#000000"
       d="m 300.26282,236.07561 -54.834,-36.99"
       id="path78" />
    <path
       style="fill:none;stroke:#000000"
       d="m 245.42882,199.08561 -34.872,51.7"
       id="path79" />
    <path
       style="fill:none;stroke:#000000"
       d="m 246.48582,197.51561 54.834,36.99"
       id="path80" />
    <path
       style="fill:none;stroke:#000000"
       d="m 301.31982,234.50561 34.872,-51.7"
       id="path81" />
    <path
       style="fill:none;stroke:#000000"
       d="m 336.19182,182.80561 -54.834,-36.99"
       id="path82" />
    <path
       style="fill:none;stroke:#000000"
       d="m 281.35782,145.81561 -34.872,51.7"
       id="path83" />
    <path
       style="fill:none;stroke:#000000"
       d="m 215.25682,364.91561 53.51,38.88"
       id="path84" />
    <path
       style="fill:none;stroke:#000000"
       d="m 268.76682,403.79561 36.656,-50.45"
       id="path85" />
    <path
       style="fill:none;stroke:#000000"
       d="m 305.42282,353.34561 -53.51,-38.88"
       id="path86" />
    <path
       style="fill:none;stroke:#000000"
       d="m 251.91282,314.46561 -36.656,50.45"
       id="path87" />
    <path
       style="fill:none;stroke:#000000"
       d="m 253.02382,312.93561 53.509,38.88"
       id="path88" />
    <path
       style="fill:none;stroke:#000000"
       d="m 306.53282,351.81561 36.656,-50.45"
       id="path89" />
    <path
       style="fill:none;stroke:#000000"
       d="m 343.18882,301.36561 -53.51,-38.88"
       id="path90" />
    <path
       style="fill:none;stroke:#000000"
       d="m 289.67882,262.48561 -36.655,50.45"
       id="path91" />
    <path
       style="fill:none;stroke:#000000"
       d="m 290.78982,260.95561 53.51,38.88"
       id="path92" />
    <path
       style="fill:none;stroke:#000000"
       d="m 344.29982,299.83561 36.655,-50.45"
       id="path93" />
    <path
       style="fill:none;stroke:#000000"
       d="m 380.95482,249.38561 -53.509,-38.88"
       id="path94" />
    <path
       style="fill:none;stroke:#000000"
       d="m 327.44582,210.50561 -36.656,50.45"
       id="path95" />
    <path
       style="fill:none;stroke:#000000"
       d="m 752.27982,321.85561 59.945,-27.95"
       id="path96" />
    <path
       style="fill:none;stroke:#000000"
       d="m 812.22482,293.90561 -26.356,-56.52"
       id="path97" />
    <path
       style="fill:none;stroke:#000000"
       d="m 785.86882,237.38561 -59.945,27.95"
       id="path98" />
    <path
       style="fill:none;stroke:#000000"
       d="m 725.92382,265.33561 26.356,56.52"
       id="path99" />
    <path
       style="fill:none;stroke:#000000"
       d="m 725.12582,263.62561 59.944,-27.96"
       id="path100" />
    <path
       style="fill:none;stroke:#000000"
       d="m 785.06982,235.66561 -26.355,-56.52"
       id="path101" />
    <path
       style="fill:none;stroke:#000000"
       d="m 758.71482,179.14561 -59.945,27.96"
       id="path102" />
    <path
       style="fill:none;stroke:#000000"
       d="m 698.76982,207.10561 26.356,56.52"
       id="path103" />
    <path
       style="fill:none;stroke:#000000"
       d="m 697.97182,205.38561 59.944,-27.95"
       id="path104" />
    <path
       style="fill:none;stroke:#000000"
       d="m 757.91582,177.43561 -26.355,-56.52"
       id="path105" />
    <path
       style="fill:none;stroke:#000000"
       d="m 731.56082,120.91561 -59.945,27.95"
       id="path106" />
    <path
       style="fill:none;stroke:#000000"
       d="m 671.61582,148.86561 26.356,56.52"
       id="path107" />
    <path
       style="fill:none;stroke:#000000"
       d="m 672.75082,320.59561 56.092,-35.05"
       id="path108" />
    <path
       style="fill:none;stroke:#000000"
       d="m 728.84282,285.54561 -33.047,-52.89"
       id="path109" />
    <path
       style="fill:none;stroke:#000000"
       d="m 695.79582,232.65561 -56.091,35.05"
       id="path110" />
    <path
       style="fill:none;stroke:#000000"
       d="m 639.70482,267.70561 33.046,52.89"
       id="path111" />
    <path
       style="fill:none;stroke:#000000"
       d="m 638.70282,266.10561 56.091,-35.05"
       id="path112" />
    <path
       style="fill:none;stroke:#000000"
       d="m 694.79382,231.05561 -33.046,-52.89"
       id="path113" />
    <path
       style="fill:none;stroke:#000000"
       d="m 661.74782,178.16561 -56.092,35.05"
       id="path114" />
    <path
       style="fill:none;stroke:#000000"
       d="m 605.65582,213.21561 33.047,52.89"
       id="path115" />
    <path
       style="fill:none;stroke:#000000"
       d="m 604.65482,211.61561 56.091,-35.05"
       id="path116" />
    <path
       style="fill:none;stroke:#000000"
       d="m 660.74582,176.56561 -33.047,-52.89"
       id="path117" />
    <path
       style="fill:none;stroke:#000000"
       d="m 627.69882,123.67561 -56.091,35.05"
       id="path118" />
    <path
       style="fill:none;stroke:#000000"
       d="m 571.60782,158.72561 33.047,52.89"
       id="path119" />
    <path
       style="fill:none;stroke:#000000"
       d="m 602.15782,341.03561 54.834,-36.98"
       id="path120" />
    <path
       style="fill:none;stroke:#000000"
       d="m 656.99182,304.05561 -34.873,-51.7"
       id="path121" />
    <path
       style="fill:none;stroke:#000000"
       d="m 622.11882,252.35561 -54.834,36.98"
       id="path122" />
    <path
       style="fill:none;stroke:#000000"
       d="m 567.28482,289.33561 34.873,51.7"
       id="path123" />
    <path
       style="fill:none;stroke:#000000"
       d="m 566.22882,287.77561 54.834,-36.99"
       id="path124" />
    <path
       style="fill:none;stroke:#000000"
       d="m 621.06282,250.78561 -34.873,-51.7"
       id="path125" />
    <path
       style="fill:none;stroke:#000000"
       d="m 586.18982,199.08561 -54.834,36.99"
       id="path126" />
    <path
       style="fill:none;stroke:#000000"
       d="m 531.35582,236.07561 34.873,51.7"
       id="path127" />
    <path
       style="fill:none;stroke:#000000"
       d="m 530.29882,234.50561 54.834,-36.99"
       id="path128" />
    <path
       style="fill:none;stroke:#000000"
       d="m 585.13282,197.51561 -34.872,-51.7"
       id="path129" />
    <path
       style="fill:none;stroke:#000000"
       d="m 550.26082,145.81561 -54.834,36.99"
       id="path130" />
    <path
       style="fill:none;stroke:#000000"
       d="m 495.42682,182.80561 34.872,51.7"
       id="path131" />
    <path
       style="fill:none;stroke:#000000"
       d="m 562.85182,403.79561 53.51,-38.88"
       id="path132" />
    <path
       style="fill:none;stroke:#000000"
       d="m 616.36182,364.91561 -36.656,-50.45"
       id="path133" />
    <path
       style="fill:none;stroke:#000000"
       d="m 579.70582,314.46561 -53.509,38.88"
       id="path134" />
    <path
       style="fill:none;stroke:#000000"
       d="m 526.19682,353.34561 36.655,50.45"
       id="path135" />
    <path
       style="fill:none;stroke:#000000"
       d="m 525.08582,351.81561 53.51,-38.88"
       id="path136" />
    <path
       style="fill:none;stroke:#000000"
       d="m 578.59582,312.93561 -36.656,-50.45"
       id="path137" />
    <path
       style="fill:none;stroke:#000000"
       d="m 541.93982,262.48561 -53.51,38.88"
       id="path138" />
    <path
       style="fill:none;stroke:#000000"
       d="m 488.42982,301.36561 36.656,50.45"
       id="path139" />
    <path
       style="fill:none;stroke:#000000"
       d="m 487.31982,299.83561 53.509,-38.88"
       id="path140" />
    <path
       style="fill:none;stroke:#000000"
       d="m 540.82882,260.95561 -36.655,-50.45"
       id="path141" />
    <path
       style="fill:none;stroke:#000000"
       d="m 504.17382,210.50561 -53.51,38.88"
       id="path142" />
    <path
       style="fill:none;stroke:#000000"
       d="m 450.66382,249.38561 36.656,50.45"
       id="path143" />
    <path
       style="fill:none;stroke:#000000"
       d="m 261.71782,422.50561 53.51,38.87"
       id="path144" />
    <path
       style="fill:none;stroke:#000000"
       d="m 315.22782,461.37561 36.655,-50.45"
       id="path145" />
    <path
       style="fill:none;stroke:#000000"
       d="m 351.88282,410.92561 -53.51,-38.88"
       id="path146" />
    <path
       style="fill:none;stroke:#000000"
       d="m 298.37282,372.04561 -36.655,50.46"
       id="path147" />
    <path
       style="fill:none;stroke:#000000"
       d="m 316.75682,462.48561 53.509,38.88"
       id="path148" />
    <path
       style="fill:none;stroke:#000000"
       d="m 370.26582,501.36561 36.656,-50.45"
       id="path149" />
    <path
       style="fill:none;stroke:#000000"
       d="m 406.92182,450.91561 -53.51,-38.88"
       id="path150" />
    <path
       style="fill:none;stroke:#000000"
       d="m 353.41182,412.03561 -36.655,50.45"
       id="path151" />
    <path
       style="fill:none;stroke:#000000"
       d="m 516.39182,461.37561 53.509,-38.87"
       id="path152" />
    <path
       style="fill:none;stroke:#000000"
       d="m 569.90082,422.50561 -36.655,-50.46"
       id="path153" />
    <path
       style="fill:none;stroke:#000000"
       d="m 533.24582,372.04561 -53.51,38.88"
       id="path154" />
    <path
       style="fill:none;stroke:#000000"
       d="m 479.73582,410.92561 36.656,50.45"
       id="path155" />
    <path
       style="fill:none;stroke:#000000"
       d="m 461.35282,501.36561 53.51,-38.88"
       id="path156" />
    <path
       style="fill:none;stroke:#000000"
       d="m 514.86282,462.48561 -36.656,-50.45"
       id="path157" />
    <path
       style="fill:none;stroke:#000000"
       d="m 478.20682,412.03561 -53.51,38.88"
       id="path158" />
    <path
       style="fill:none;stroke:#000000"
       d="m 424.69682,450.91561 36.656,50.45"
       id="path159" />
    <path
       style="fill:none;stroke:#000000"
       d="m 6.8350232,289.08561 82.0148008,-175.88"
       id="path160" />
    <path
       d="m 100.45483,106.00834 a 12.472441,12.472441 0 0 0 -11.605291,7.19772"
       style="fill:none;stroke:#000000"
       id="path161" />
    <path
       style="fill:none;stroke:#000000"
       d="m 100.45483,106.00561 101.69199,2.46"
       id="path162" />
    <path
       d="m 205.25748,108.93889 a 12.472441,12.472441 0 0 0 -3.11094,-0.47223"
       style="fill:none;stroke:#000000"
       id="path163" />
    <path
       style="fill:none;stroke:#000000"
       d="m 205.25782,108.93561 76.624,21.8"
       id="path164" />
    <path
       d="m 285.44415,132.3908 a 12.472441,12.472441 0 0 0 -3.56214,-1.65644"
       style="fill:none;stroke:#000000"
       id="path165" />
    <path
       style="fill:none;stroke:#000000"
       d="m 285.44382,132.39561 61.555,41.51"
       id="path166" />
    <path
       d="m 350.38267,177.30297 a 12.472441,12.472441 0 0 0 -3.38421,-3.39327"
       style="fill:none;stroke:#000000"
       id="path167" />
    <path
       style="fill:none;stroke:#000000"
       d="m 350.38282,177.30561 43.455,64.79"
       id="path168" />
    <path
       d="m 393.83992,242.10369 a 8.692913,8.692913 0 0 0 -0.003,-0.004"
       style="fill:none;stroke:#000000"
       id="path169" />
    <path
       d="m 395.5741,252.08987 a 12.472441,12.472441 0 0 0 -1.73418,-9.98618"
       style="fill:none;stroke:#000000"
       id="path170" />
    <path
       style="fill:none;stroke:#000000"
       d="m 395.57382,252.08561 -2.629,10.46"
       id="path171" />
    <path
       style="fill:none;stroke:#000000"
       d="m 392.94482,262.54561 h 45.729"
       id="path172" />
    <path
       style="fill:none;stroke:#000000"
       d="m 438.67382,262.54561 -2.629,-10.46"
       id="path173" />
    <path
       d="m 436.04368,252.08536 a 8.692913,8.692913 0 0 0 0.001,0.005"
       style="fill:none;stroke:#000000"
       id="path174" />
    <path
       d="m 437.78158,242.09982 a 12.472441,12.472441 0 0 0 -1.7379,9.98554"
       style="fill:none;stroke:#000000"
       id="path175" />
    <path
       style="fill:none;stroke:#000000"
       d="m 437.78182,242.09561 43.454,-64.79"
       id="path176" />
    <path
       d="m 484.62046,173.9097 a 12.472441,12.472441 0 0 0 -3.38422,3.39327"
       style="fill:none;stroke:#000000"
       id="path177" />
    <path
       style="fill:none;stroke:#000000"
       d="m 484.62082,173.90561 61.554,-41.51"
       id="path178" />
    <path
       d="m 549.7369,130.73436 a 12.472441,12.472441 0 0 0 -3.56214,1.65644"
       style="fill:none;stroke:#000000"
       id="path179" />
    <path
       style="fill:none;stroke:#000000"
       d="m 549.73682,130.73561 76.625,-21.8"
       id="path180" />
    <path
       d="m 626.36591,108.93762 a 8.692913,8.692913 0 0 0 -0.004,0.001"
       style="fill:none;stroke:#000000"
       id="path181" />
    <path
       d="m 629.47237,108.46666 a 12.472441,12.472441 0 0 0 -3.11094,0.47223"
       style="fill:none;stroke:#000000"
       id="path182" />
    <path
       style="fill:none;stroke:#000000"
       d="m 629.47282,108.46561 101.691,-2.46"
       id="path183" />
    <path
       d="m 742.76937,113.20606 a 12.472441,12.472441 0 0 0 -11.60529,-7.19772"
       style="fill:none;stroke:#000000"
       id="path184" />
    <path
       style="fill:none;stroke:#000000"
       d="m 742.76982,113.20561 82.014,175.88"
       id="path185" />
    <path
       d="m 818.75111,305.66172 a 12.472441,12.472441 0 0 0 6.03279,-16.57495"
       style="fill:none;stroke:#000000"
       id="path186" />
    <path
       style="fill:none;stroke:#000000"
       d="m 818.75082,305.66561 -64.821,30.22"
       id="path187" />
    <path
       style="fill:none;stroke:#000000"
       d="m 753.92982,335.88561 -172.762,95.02"
       id="path188" />
    <path
       style="fill:none;stroke:#000000"
       d="m 581.16782,430.90561 -112.693,81.87"
       id="path189" />
    <path
       d="m 451.05333,510.01771 a 12.472441,12.472441 0 0 0 17.42153,2.7593"
       style="fill:none;stroke:#000000"
       id="path190" />
    <path
       style="fill:none;stroke:#000000"
       d="m 451.05382,510.01561 -35.244,-48.51"
       id="path191" />
    <path
       style="fill:none;stroke:#000000"
       d="m 415.80982,461.50561 -35.244,48.51"
       id="path192" />
    <path
       d="m 363.14405,512.77701 a 12.472441,12.472441 0 0 0 17.41879,-2.75554"
       style="fill:none;stroke:#000000"
       id="path193" />
    <path
       style="fill:none;stroke:#000000"
       d="m 363.14382,512.77561 -112.693,-81.87"
       id="path194" />
    <path
       style="fill:none;stroke:#000000"
       d="m 250.45082,430.90561 -172.761996,-95.02"
       id="path195" />
    <path
       style="fill:none;stroke:#000000"
       d="m 77.688824,335.88561 -64.820999,-30.22"
       id="path196" />
    <path
       d="m 12.863586,305.65975 a 8.692913,8.692913 0 0 0 0.0042,0.002"
       style="fill:none;stroke:#000000"
       id="path197" />
    <path
       d="m 6.8350152,289.08677 a 12.472441,12.472441 0 0 0 6.0327898,16.57495"
       style="fill:none;stroke:#000000"
       id="path198" />
    <path
       style="fill:none;stroke:#000000"
       d="m 13.685825,292.28561 82.015003,-175.88"
       id="path199" />
    <path
       d="m 100.27215,113.56519 a 4.913386,4.913386 0 0 0 -4.571782,2.83546"
       style="fill:none;stroke:#000000"
       id="path200" />
    <path
       style="fill:none;stroke:#000000"
       d="m 100.27183,113.56561 101.69199,2.46"
       id="path201" />
    <path
       d="m 203.18938,116.20953 a 4.913386,4.913386 0 0 0 -1.22552,-0.18603"
       style="fill:none;stroke:#000000"
       id="path202" />
    <path
       style="fill:none;stroke:#000000"
       d="m 203.18982,116.20561 76.624,21.8"
       id="path203" />
    <path
       d="M 281.21718,138.65754 A 4.913386,4.913386 0 0 0 279.81392,138.005"
       style="fill:none;stroke:#000000"
       id="path204" />
    <path
       style="fill:none;stroke:#000000"
       d="m 281.21682,138.65561 61.555,41.52"
       id="path205" />
    <path
       d="m 344.10466,181.51318 a 4.913386,4.913386 0 0 0 -1.33317,-1.33674"
       style="fill:none;stroke:#000000"
       id="path206" />
    <path
       style="fill:none;stroke:#000000"
       d="m 344.10482,181.51561 43.454,64.79"
       id="path207" />
    <path
       d="m 388.2435,250.24551 a 4.913386,4.913386 0 0 0 -0.68359,-3.93459"
       style="fill:none;stroke:#000000"
       id="path208" />
    <path
       style="fill:none;stroke:#000000"
       d="m 388.24382,250.24561 -4.168,16.56"
       id="path209" />
    <path
       d="m 384.07624,266.80874 a 2.645669,2.645669 0 0 0 2.5657,3.2912"
       style="fill:none;stroke:#000000"
       id="path210" />
    <path
       style="fill:none;stroke:#000000"
       d="m 386.64182,270.09561 h 58.335"
       id="path211" />
    <path
       d="m 444.97697,270.09994 a 2.645669,2.645669 0 0 0 2.56571,-3.2912"
       style="fill:none;stroke:#000000"
       id="path212" />
    <path
       style="fill:none;stroke:#000000"
       d="m 447.54282,266.80561 -4.167,-16.56"
       id="path213" />
    <path
       d="m 444.05959,246.31004 a 4.913386,4.913386 0 0 0 -0.68444,3.93445"
       style="fill:none;stroke:#000000"
       id="path214" />
    <path
       style="fill:none;stroke:#000000"
       d="m 444.05982,246.30561 43.454,-64.79"
       id="path215" />
    <path
       d="m 488.84743,180.17644 a 4.913386,4.913386 0 0 0 -1.33318,1.33674"
       style="fill:none;stroke:#000000"
       id="path216" />
    <path
       style="fill:none;stroke:#000000"
       d="m 488.84782,180.17561 61.554,-41.52"
       id="path217" />
    <path
       d="m 551.805,138.005 a 4.913386,4.913386 0 0 0 -1.40327,0.65254"
       style="fill:none;stroke:#000000"
       id="path218" />
    <path
       style="fill:none;stroke:#000000"
       d="m 551.80482,138.00561 76.625,-21.8"
       id="path219" />
    <path
       d="m 629.65505,116.0235 a 4.913386,4.913386 0 0 0 -1.2245,0.18575"
       style="fill:none;stroke:#000000"
       id="path220" />
    <path
       style="fill:none;stroke:#000000"
       d="m 629.65482,116.02561 101.692,-2.46"
       id="path221" />
    <path
       d="m 735.91854,116.40065 a 4.913386,4.913386 0 0 0 -4.57178,-2.83546"
       style="fill:none;stroke:#000000"
       id="path222" />
    <path
       style="fill:none;stroke:#000000"
       d="m 735.91882,116.40561 82.014,175.88"
       id="path223" />
    <path
       d="m 815.55651,298.81089 a 4.913386,4.913386 0 0 0 2.37656,-6.52953"
       style="fill:none;stroke:#000000"
       id="path224" />
    <path
       style="fill:none;stroke:#000000"
       d="m 815.55682,298.81561 -64.969,30.29"
       id="path225" />
    <path
       d="m 750.58753,329.10643 a 2.645669,2.645669 0 0 0 -0.15682,0.0796"
       style="fill:none;stroke:#000000"
       id="path226" />
    <path
       style="fill:none;stroke:#000000"
       d="m 750.43082,329.18561 -173.176,95.24"
       id="path227" />
    <path
       d="m 577.25476,424.426 a 2.645669,2.645669 0 0 0 -0.28015,0.17782"
       style="fill:none;stroke:#000000"
       id="path228" />
    <path
       style="fill:none;stroke:#000000"
       d="m 576.97482,424.60561 -112.943,82.06"
       id="path229" />
    <path
       d="m 457.16874,505.57461 a 4.913386,4.913386 0 0 0 6.86302,1.08699"
       style="fill:none;stroke:#000000"
       id="path230" />
    <path
       style="fill:none;stroke:#000000"
       d="m 457.16882,505.57561 -38.856,-53.48"
       id="path231" />
    <path
       d="m 418.31276,452.09395 a 2.645669,2.645669 0 0 0 -2.14039,-1.09059"
       style="fill:none;stroke:#000000"
       id="path232" />
    <path
       style="fill:none;stroke:#000000"
       d="m 416.17282,451.00561 h -2.074"
       id="path233" />
    <path
       style="fill:none;stroke:#000000"
       d="m 414.09882,451.00561 -39.649,54.57"
       id="path234" />
    <path
       d="m 367.58715,506.6616 a 4.913386,4.913386 0 0 0 6.86241,-1.08614"
       style="fill:none;stroke:#000000"
       id="path235" />
    <path
       style="fill:none;stroke:#000000"
       d="m 367.58682,506.66561 -112.943,-82.06"
       id="path236" />
    <path
       d="M 254.64431,424.60382 A 2.645669,2.645669 0 0 0 254.36415,424.426"
       style="fill:none;stroke:#000000"
       id="path237" />
    <path
       style="fill:none;stroke:#000000"
       d="m 254.36382,424.42561 -173.175996,-95.24"
       id="path238" />
    <path
       d="m 81.188204,329.186 a 2.645669,2.645669 0 0 0 -0.15682,-0.0796"
       style="fill:none;stroke:#000000"
       id="path239" />
    <path
       style="fill:none;stroke:#000000"
       d="m 81.031824,329.10561 -64.969399,-30.29"
       id="path240" />
    <path
       d="m 13.685847,292.28136 a 4.913386,4.913386 0 0 0 2.375597,6.52908"
       style="fill:none;stroke:#000000"
       id="path241" />
    <path
       style="fill:none;stroke:#000000"
       d="m 381.79382,360.05561 h 68.031"
       id="path242" />
    <path
       style="fill:none;stroke:#000000"
       d="m 449.82482,360.05561 v -88.82"
       id="path243" />
    <path
       style="fill:none;stroke:#000000"
       d="m 381.79382,271.23561 v 88.82"
       id="path244" />
    <path
       style="fill:none;stroke:#000000"
       d="m 391.24282,385.56561 h 49.134"
       id="path245" />
    <path
       style="fill:none;stroke:#000000"
       d="m 440.37682,385.56561 v -11.34"
       id="path246" />
    <path
       style="fill:none;stroke:#000000"
       d="m 440.37682,374.22561 h -49.134"
       id="path247" />
    <path
       style="fill:none;stroke:#000000"
       d="m 391.24282,374.22561 v 11.34"
       id="path248" />
    <path
       d="m 491.40001,351.1708 a 75.590555,75.590555 0 0 0 -151.18111,0 75.590555,75.590555 0 0 0 151.18111,0 z"
       style="fill:none;stroke:#000000"
       id="path249" />
    <path
       d="m 484.97481,351.1708 a 69.165355,69.165355 0 0 0 -138.33071,0 69.165355,69.165355 0 0 0 138.33071,0 z"
       style="fill:none;stroke:#000000"
       id="path250" />
    <path
       d="m 495.17953,351.1708 a 79.370079,79.370079 0 0 0 -158.74015,0 79.370079,79.370079 0 0 0 158.74015,0 z"
       style="fill:none;stroke:#000000"
       id="path251" />
    <path
       d="m 555.65198,304.30466 a 139.84252,139.84252 0 0 0 -279.68504,0 139.84252,139.84252 0 0 0 279.68504,0 z"
       style="fill:none;stroke:#000000"
       id="path252" />
    <path
       d="m 563.21103,304.30466 a 147.40157,147.40157 0 0 0 -294.80315,0 147.40157,147.40157 0 0 0 294.80315,0 z"
       style="fill:none;stroke:#000000"
       id="path253" />
    <path
       d="m 159.21122,128.82629 a 11.338585,11.338585 0 0 0 -22.67717,0 11.338585,11.338585 0 0 0 22.67717,0 z"
       style="fill:none;stroke:#000000"
       id="path254" />
    <path
       d="m 272.57053,145.71996 a 11.338583,11.338583 0 0 0 -22.67716,0 11.338583,11.338583 0 0 0 22.67716,0 z"
       style="fill:none;stroke:#000000"
       id="path255" />
    <path
       d="m 107.32742,320.29761 a 11.338583,11.338583 0 0 0 -22.677164,0 11.338583,11.338583 0 0 0 22.677164,0 z"
       style="fill:none;stroke:#000000"
       id="path256" />
    <path
       d="m 259.75685,404.47669 a 11.338585,11.338585 0 0 0 -22.67717,0 11.338585,11.338585 0 0 0 22.67717,0 z"
       style="fill:none;stroke:#000000"
       id="path257" />
    <path
       d="m 427.14804,408.35884 a 11.338585,11.338585 0 0 0 -22.67717,0 11.338585,11.338585 0 0 0 22.67717,0 z"
       style="fill:none;stroke:#000000"
       id="path258" />
    <path
       d="m 376.12442,325.28104 a 11.338585,11.338585 0 0 0 -22.67717,0 11.338585,11.338585 0 0 0 22.67717,0 z"
       style="fill:none;stroke:#000000"
       id="path259" />
    <path
       d="m 695.08486,128.82629 a 11.338585,11.338585 0 0 0 -22.67717,0 11.338585,11.338585 0 0 0 22.67717,0 z"
       style="fill:none;stroke:#000000"
       id="path260" />
    <path
       d="m 581.72555,145.71996 a 11.338585,11.338585 0 0 0 -22.67717,0 11.338585,11.338585 0 0 0 22.67717,0 z"
       style="fill:none;stroke:#000000"
       id="path261" />
    <path
       d="m 746.96866,320.29761 a 11.338585,11.338585 0 0 0 -22.67717,0 11.338585,11.338585 0 0 0 22.67717,0 z"
       style="fill:none;stroke:#000000"
       id="path262" />
    <path
       d="m 594.53923,404.47669 a 11.338583,11.338583 0 0 0 -22.67716,0 11.338583,11.338583 0 0 0 22.67716,0 z"
       style="fill:none;stroke:#000000"
       id="path263" />
    <path
       d="m 478.17166,325.28104 a 11.338583,11.338583 0 0 0 -22.67716,0 11.338583,11.338583 0 0 0 22.67716,0 z"
       style="fill:none;stroke:#000000"
       id="path264" />
    <path
       d="m 154.29783,128.82629 a 6.425197,6.425197 0 0 0 -12.85039,0 6.425197,6.425197 0 0 0 12.85039,0 z"
       style="fill:none;stroke:#000000"
       id="path265" />
    <path
       d="m 267.65715,145.71996 a 6.4252,6.4252 0 0 0 -12.8504,0 6.4252,6.4252 0 0 0 12.8504,0 z"
       style="fill:none;stroke:#000000"
       id="path266" />
    <path
       d="m 102.41404,320.29761 a 6.425199,6.425199 0 0 0 -12.850398,0 6.425199,6.425199 0 0 0 12.850398,0 z"
       style="fill:none;stroke:#000000"
       id="path267" />
    <path
       d="m 254.84346,404.47669 a 6.425197,6.425197 0 0 0 -12.85039,0 6.425197,6.425197 0 0 0 12.85039,0 z"
       style="fill:none;stroke:#000000"
       id="path268" />
    <path
       d="m 422.23465,408.35884 a 6.425197,6.425197 0 0 0 -12.85039,0 6.425197,6.425197 0 0 0 12.85039,0 z"
       style="fill:none;stroke:#000000"
       id="path269" />
    <path
       d="m 371.21103,325.28104 a 6.425197,6.425197 0 0 0 -12.85039,0 6.425197,6.425197 0 0 0 12.85039,0 z"
       style="fill:none;stroke:#000000"
       id="path270" />
    <path
       d="m 690.17147,128.82629 a 6.425197,6.425197 0 0 0 -12.85039,0 6.425197,6.425197 0 0 0 12.85039,0 z"
       style="fill:none;stroke:#000000"
       id="path271" />
    <path
       d="m 576.81216,145.71996 a 6.425197,6.425197 0 0 0 -12.85039,0 6.425197,6.425197 0 0 0 12.85039,0 z"
       style="fill:none;stroke:#000000"
       id="path272" />
    <path
       d="m 742.05527,320.29761 a 6.425197,6.425197 0 0 0 -12.85039,0 6.425197,6.425197 0 0 0 12.85039,0 z"
       style="fill:none;stroke:#000000"
       id="path273" />
    <path
       d="m 589.62585,404.47669 a 6.4252,6.4252 0 0 0 -12.8504,0 6.4252,6.4252 0 0 0 12.8504,0 z"
       style="fill:none;stroke:#000000"
       id="path274" />
    <path
       d="m 473.25827,325.28104 a 6.425197,6.425197 0 0 0 -12.85039,0 6.425197,6.425197 0 0 0 12.85039,0 z"
       style="fill:none;stroke:#000000"
       id="path275" />
  </g>
  <g
     inkscape:groupmode="layer"
     id="layer2"
     inkscape:label="1">
    <text
       xml:space="preserve"
       style="font-size:26.6667px;font-family:HanaMinA;-inkscape-font-specification:HanaMinA;text-align:center;writing-mode:lr-tb;direction:ltr;text-anchor:middle;fill:#000000"
       x="386.56122"
       y="235.61269"
       id="text275"
       transform="rotate(30)"
       inkscape:export-filename="text275.png"
       inkscape:export-xdpi="600"
       inkscape:export-ydpi="600"><tspan
         sodipodi:role="line"
         id="tspan275"
         x="386.56122"
         y="235.61269">蝙</tspan></text>
    <text
       xml:space="preserve"
       style="font-size:26.6667px;font-family:HanaMinA;-inkscape-font-specification:HanaMinA;text-align:center;writing-mode:lr-tb;direction:ltr;text-anchor:middle;fill:#000000"
       x="334.58524"
       y="652.37646"
       id="text276"
       transform="rotate(-30)"><tspan
         sodipodi:role="line"
         id="tspan276"
         x="334.58524"
         y="652.37646">蝠</tspan></text>
  </g>
  <g
     inkscape:groupmode="layer"
     id="layer3"
     inkscape:label="wing"
     style="display:inline"
     inkscape:export-filename="layer3.png"
     inkscape:export-xdpi="600"
     inkscape:export-ydpi="600">
    <path
       style="fill:#000000"
       d="m 198.33569,390.06975 9.20969,-17.64961 c 0,0 -7.67138,-5.77455 -7.05223,-15.80386 0.60299,-9.76762 13.43949,-14.69196 13.43949,-14.69196 -26.20891,-13.61616 -55.98479,-16.42728 -68.82348,-15.20364 -22.0194,2.09865 -35.2045,12.80123 -35.2045,12.80123 0,0 14.05089,-3.03491 23.62103,2.5765 8.79884,5.15917 13.17432,17.62828 13.17432,17.62828 0,0 8.81838,-3.99356 19.10413,1.41126 12.91745,6.78769 12.32847,16.39455 12.32847,16.39455 0,0 6.44466,-5.43896 14.03392,-0.82557 6.92376,4.20885 6.16916,13.36282 6.16916,13.36282 z"
       id="path276"
       sodipodi:nodetypes="ccscscscscsc"
       inkscape:export-filename="path276.png"
       inkscape:export-xdpi="600"
       inkscape:export-ydpi="600" />
    <path
       style="fill:#ffffff;stroke:none"
       d="m 206.27029,372.47821 c 0,0 -6.49989,-6.46281 -6.64221,-15.44159 -0.12752,-8.04544 12.44657,-15.21002 12.44657,-15.21002 0,0 -12.94272,6.13771 -13.42994,14.56933 -0.53325,9.22807 7.62558,16.08228 7.62558,16.08228 z"
       id="path277"
       sodipodi:nodetypes="cscsc" />
    <path
       style="fill:#ffffff;stroke:none"
       d="m 211.20399,341.72641 c 0,0 -15.01539,8.35158 -21.01966,14.80804 -5.02855,5.40727 -12.01345,20.90813 -12.01345,20.90813 0,0 6.22599,-15.42194 11.0601,-21.48439 5.65535,-7.09235 21.97301,-14.23178 21.97301,-14.23178 z"
       id="path278"
       sodipodi:nodetypes="cscsc" />
    <path
       style="fill:#ffffff;stroke:none"
       d="m 211.95878,341.69067 c 0,0 -36.15393,-16.99615 -65.30583,-14.30546 -22.49586,2.07634 -36.58716,12.06561 -36.58716,12.06561 0,0 13.96819,-8.33316 33.15623,-10.86556 21.78139,-2.87468 68.73676,13.10541 68.73676,13.10541 z"
       id="path279"
       sodipodi:nodetypes="cscsc" />
    <path
       style="fill:#ffffff;stroke:none"
       d="m 211.8777,341.83694 c 0,0 -31.92232,-8.55803 -46.69504,-2.17278 -7.8779,3.40509 -18.36842,19.8129 -18.36842,19.8129 0,0 12.41211,-17.11823 20.40394,-19.35089 15.01366,-4.19432 44.65952,1.71077 44.65952,1.71077 z"
       id="path280"
       sodipodi:nodetypes="cscsc" />
    <path
       style="fill:#ffffff;stroke:none"
       d="m 212.57825,341.86673 -3.4193,-1.39267 c 0,0 0.38016,0.30094 0.34966,0.53953 -0.0252,0.19697 -0.51919,0.17794 -0.51919,0.17794 0,0 0.67371,0.28304 0.74664,0.60604 0.0966,0.42798 -0.12993,0.55793 -0.12723,0.70086 0.002,0.1214 0.27771,-0.0392 0.41084,0.223 0.11158,0.21979 -0.0701,0.43278 -0.0701,0.43278 z"
       id="path281"
       sodipodi:nodetypes="ccscscscc"
       inkscape:export-filename="path281.png"
       inkscape:export-xdpi="600"
       inkscape:export-ydpi="600" />
  </g>
</svg>
